{"title":"Detective Conan (Case Closed) (Season 1 Ep 1-28) 480p [Cursator]","uid":7852623,"size":1088352350,"categoryP":"video","categoryS":"tv_shows","magnet":"?xt=urn:btih:26bb3612f43845268e8425053d465ac62f758c4b&amp;dn=Detective+Conan+%28Case+Closed%29+%28Season+1+Ep+1-28%29+480p+%5BCursator%5D&amp;tr=udp%3A%2F%2Ftracker.openbittorrent.com%3A80&amp;tr=udp%3A%2F%2Fopen.demonii.com%3A1337&amp;tr=udp%3A%2F%2Ftracker.coppersurfer.tk%3A6969&amp;tr=udp%3A%2F%2Fexodus.desync.com%3A6969","seeders":1,"leechers":1,"uploader":"Cursator","files":-1,"time":1353657470,"description":"All The Episodes of Detective Conan (Season 1) aka &quot;Case Closed&quot; (Ep 1-28) at 480p Video Quality :)\n\nPlease seed after you download.\n\n--------------------------------------------------------------------------------\n\nCover\n--------------------------------------------------------------------------------\n        &lt;a href=&quot;\nhttp://img694.imageshack.us/img694/4091/detectiveconancursator.jpg&quot; rel=&quot;nofollow&quot; target=&quot;_NEW&quot;&gt;\nhttp://img694.imageshack.us/img694/4091/detectiveconancursator.jpg&lt;/a&gt;\n--------------------------------------------------------------------------------\n\nInfo\n---------------------------------------------------------------------------------\n\nGeneral\n--------\n\nFormat                                   : MPEG-4\nFormat profile                           : Base Media\nCodec ID                                 : isom\nFile size                                : 39.4 MiB\nDuration                                 : 24mn 39s\nOverall bit rate mode                    : Variable\nOverall bit rate                         : 223 Kbps\nWriting application                      : Lavf52.61.0\n\n\nVideo\n---------------------------------------\n\nID                                       : 1\nFormat                                   : AVC\nFormat/Info                              : Advanced Video Codec\nFormat profile                           : &lt;a class=&quot;__cf_email__&quot; href=&quot;/cdn-cgi/l/email-protection&quot; data-cfemail=&quot;baf2d3ddd2faf689948a&quot;&gt;[email&amp;#160;protected]&lt;/a&gt;&lt;script cf-hash='f9e31' type=&quot;text/javascript&quot;&gt;\n/* &lt;![CDATA[ */!function(){try{var t=&quot;currentScript&quot;in document?document.currentScript:function(){for(var t=document.getElementsByTagName(&quot;script&quot;),e=t.length;e--;)if(t[e].getAttribute(&quot;cf-hash&quot;))return t[e]}();if(t&amp;&amp;t.previousSibling){var e,r,n,i,c=t.previousSibling,a=c.getAttribute(&quot;data-cfemail&quot;);if(a){for(e=&quot;&quot;,r=parseInt(a.substr(0,2),16),n=2;a.length-n;n+=2)i=parseInt(a.substr(n,2),16)^r,e+=String.fromCharCode(i);e=document.createTextNode(e),c.parentNode.replaceChild(e,c)}}}catch(u){}}();/* ]]&gt; */&lt;/script&gt;\nFormat settings, CABAC                   : Yes\nFormat settings, ReFrames                : 5 frames\nCodec ID                                 : avc1\nCodec ID/Info                            : Advanced Video Coding\nDuration                                 : 24mn 39s\nBit rate                                 : 124 Kbps\nWidth                                    : 640 pixels\nHeight                                   : 480 pixels\nDisplay aspect ratio                     : 4:3\nFrame rate mode                          : Constant\nFrame rate                               : 23.976 fps\nColor space                              : YUV\nChroma subsampling                       : 4:2:0\nBit depth                                : 8 bits\nScan type                                : Progressive\nBits/(Pixel*Frame)                       : 0.017\nStream size                              : 21.8 MiB (55%)\nWriting library                          : x264 core 93 r1542 5b86182\n\nAudio\n----------------------------------\n\nID                                       : 2\nFormat                                   : AAC\nFormat/Info                              : Advanced Audio Codec\nFormat profile                           : LC\nCodec ID                                 : 40\nDuration                                 : 24mn 39s\nBit rate mode                            : Variable\nBit rate                                 : 96.0 Kbps\nChannel(s)                               : 2 channels\nChannel positions                        : Front: L R\nSampling rate                            : 48.0 KHz\nCompression mode                         : Lossy\nDelay relative to video                  : 83ms\nStream size                              : 16.9 MiB (43%)\n\n\n----------------------------------------------------------------------------------\n\nScreenshots\n----------------------------------------------------------------------------------\n              &lt;a href=&quot;\nhttp://img818.imageshack.us/img818/925/detectiveconan1.png&quot; rel=&quot;nofollow&quot; target=&quot;_NEW&quot;&gt;\nhttp://img818.imageshack.us/img818/925/detectiveconan1.png&lt;/a&gt;\n              &lt;a href=&quot;\nhttp://img545.imageshack.us/img545/1508/detectiveconan2.png&quot; rel=&quot;nofollow&quot; target=&quot;_NEW&quot;&gt;\nhttp://img545.imageshack.us/img545/1508/detectiveconan2.png&lt;/a&gt;\n              &lt;a href=&quot;\nhttp://img89.imageshack.us/img89/4382/detectiveconan3.png&quot; rel=&quot;nofollow&quot; target=&quot;_NEW&quot;&gt;\nhttp://img89.imageshack.us/img89/4382/detectiveconan3.png&lt;/a&gt;\n              &lt;a href=&quot;\nhttp://img40.imageshack.us/img40/9124/detectiveconan4.png&quot; rel=&quot;nofollow&quot; target=&quot;_NEW&quot;&gt;\nhttp://img40.imageshack.us/img40/9124/detectiveconan4.png&lt;/a&gt;\n              &lt;a href=&quot;\nhttp://img526.imageshack.us/img526/9058/detectiveconan5.png&quot; rel=&quot;nofollow&quot; target=&quot;_NEW&quot;&gt;\nhttp://img526.imageshack.us/img526/9058/detectiveconan5.png&lt;/a&gt;\n \n\n----------------------------------------------------------------------------------\n\nStory\n----------------------------------------------------------------------------------\n\nKudo Shinichi is a seventeen year-old high school detective whom people call the &quot;Modern Sherlock Holmes.&quot; However, one night after a date with his childhood sweetheart, Ran, Shinichi witnessed an illegal trade and, caught off his guard, was knocked unconscious and fed a drug that was supposed to kill him... but he woke up and found himself shrunken to a seven year old. In order to track down the men who did this to him, Shinichi hid his identity and lived with Ran, whose father happened to be a hopeless detective, and with that came a series of murders and mysteries that he must solve.\n\n----------------------------------------------------------------------------------\n\nThank you for downloading. \n\nEnjoy Watching :)\t\t\t\t\n\t\t\t\t\t\t","torrent":{"xt":"urn:btih:26bb3612f43845268e8425053d465ac62f758c4b","amp;dn":"Detective+Conan+%28Case+Closed%29+%28Season+1+Ep+1-28%29+480p+%5BCursator%5D","amp;tr":["udp%3A%2F%2Ftracker.openbittorrent.com%3A80","udp%3A%2F%2Fopen.demonii.com%3A1337","udp%3A%2F%2Ftracker.coppersurfer.tk%3A6969","udp%3A%2F%2Fexodus.desync.com%3A6969"],"infoHash":"26bb3612f43845268e8425053d465ac62f758c4b","infoHashBuffer":{"type":"Buffer","data":[38,187,54,18,244,56,69,38,142,132,37,5,61,70,90,198,47,117,140,75]},"announce":[],"urlList":[]}}